<svg width="256" height="256" viewBox="0 0 256 256" fill="none" xmlns="http://www.w3.org/2000/svg">
<rect width="256" height="256" fill="#263238"/>
<path d="M150.464 34C138.363 34.0474 126.774 38.8885 118.238 47.4623C109.702 56.0361 104.916 67.643 104.928 79.7385H150.464V171.216H196V34H150.464Z" fill="white"/>
<path d="M104.929 80.1436H60V171.216H104.929V80.1436Z" fill="white"/>
<path d="M108.017 212.926V210.425C106.906 211.364 105.637 212.096 104.269 212.588C102.865 213.093 101.384 213.348 99.8925 213.342C98.0845 213.356 96.2934 212.993 94.6336 212.276C93.0336 211.596 91.584 210.606 90.3682 209.364C89.1524 208.121 88.1946 206.65 87.5499 205.036C86.8503 203.325 86.4964 201.493 86.5087 199.646C86.4947 197.806 86.8487 195.982 87.5499 194.281C88.2079 192.671 89.1719 191.203 90.3885 189.96C91.6164 188.723 93.0762 187.741 94.6843 187.069C97.7104 185.794 101.095 185.655 104.216 186.678C105.557 187.123 106.822 187.773 107.965 188.604V186.418H113.173V212.926H108.017ZM91.6134 199.595C91.6134 202.197 92.4815 204.384 94.2175 206.155C95.9536 207.926 98.0889 208.812 100.623 208.812C102.046 208.826 103.456 208.543 104.763 207.98C105.994 207.451 107.089 206.649 107.965 205.635V193.597C107.07 192.606 105.968 191.823 104.737 191.305C103.438 190.747 102.038 190.463 100.623 190.471C98.0889 190.471 95.9536 191.339 94.2175 193.075C92.4815 194.811 91.6134 196.985 91.6134 199.595Z" fill="white"/>
<path d="M117.494 223.707V186.418H122.649V188.969C123.726 187.998 124.982 187.246 126.347 186.756C129.501 185.65 132.955 185.761 136.031 187.068C139.253 188.441 141.8 191.034 143.114 194.281C143.816 195.982 144.17 197.806 144.156 199.645C144.168 201.493 143.814 203.325 143.114 205.035C142.106 207.504 140.382 209.615 138.164 211.095C135.946 212.575 133.335 213.358 130.668 213.342C129.226 213.344 127.793 213.116 126.423 212.666C125.085 212.232 123.827 211.58 122.7 210.738V223.707H117.494ZM130.096 190.532C128.665 190.52 127.248 190.803 125.931 191.364C124.69 191.889 123.585 192.691 122.702 193.708V205.698C123.577 206.7 124.673 207.485 125.904 207.99C127.23 208.55 128.657 208.833 130.096 208.822C132.63 208.822 134.757 207.954 136.476 206.218C138.196 204.482 139.055 202.312 139.055 199.709C139.055 197.105 138.187 194.926 136.451 193.172C135.63 192.319 134.642 191.644 133.549 191.189C132.455 190.735 131.28 190.511 130.096 190.532V190.532Z" fill="white"/>
<path d="M147.285 223.708V186.418H152.44V188.969C153.517 187.998 154.773 187.246 156.138 186.756C159.293 185.649 162.747 185.761 165.824 187.069C169.046 188.442 171.593 191.035 172.908 194.281C173.609 195.982 173.963 197.806 173.949 199.646C173.961 201.493 173.608 203.325 172.908 205.036C171.899 207.505 170.175 209.616 167.956 211.096C165.738 212.576 163.127 213.359 160.46 213.342C159.018 213.345 157.586 213.116 156.217 212.666C154.878 212.233 153.62 211.581 152.493 210.738V223.708H147.285ZM159.898 190.532C158.466 190.521 157.048 190.804 155.731 191.365C154.49 191.889 153.386 192.691 152.504 193.709V205.699C153.377 206.696 154.469 207.477 155.695 207.98C157.024 208.541 158.455 208.825 159.898 208.812C162.432 208.812 164.559 207.944 166.278 206.208C167.997 204.472 168.856 202.302 168.855 199.699C168.855 197.095 167.987 194.916 166.251 193.162C165.43 192.31 164.442 191.637 163.349 191.185C162.255 190.732 161.081 190.51 159.898 190.532V190.532Z" fill="white"/>
<path d="M174.575 209.5L177.386 206.062C178.678 207.082 180.107 207.914 181.631 208.535C183.03 209.101 184.524 209.392 186.033 209.395C187.907 209.395 189.435 209.031 190.616 208.303C191.797 207.575 192.387 206.62 192.386 205.437C192.401 205.008 192.315 204.582 192.134 204.193C191.953 203.804 191.682 203.463 191.345 203.198C190.65 202.643 189.574 202.261 188.115 202.051L183.323 201.375C180.72 200.992 178.749 200.185 177.41 198.953C176.07 197.721 175.402 196.081 175.403 194.032C175.403 191.638 176.358 189.702 178.267 188.224C180.176 186.745 182.676 186.008 185.767 186.01C187.648 186.001 189.52 186.283 191.315 186.845C193.141 187.438 194.87 188.297 196.445 189.396L193.792 192.815C192.483 191.917 191.054 191.206 189.547 190.703C188.209 190.275 186.813 190.056 185.408 190.053C183.81 190.053 182.525 190.382 181.553 191.041C180.582 191.7 180.095 192.573 180.094 193.66C180.094 194.633 180.433 195.371 181.11 195.874C181.787 196.376 182.907 196.75 184.47 196.995L189.256 197.673C191.858 198.055 193.845 198.871 195.218 200.121C196.591 201.371 197.279 203.019 197.281 205.065C197.287 206.223 196.991 207.362 196.422 208.37C195.839 209.406 195.04 210.304 194.078 211.002C193.009 211.77 191.822 212.36 190.563 212.746C189.148 213.189 187.672 213.408 186.189 213.397C184.004 213.414 181.831 213.079 179.752 212.406C177.847 211.799 176.086 210.81 174.575 209.5Z" fill="white"/>
<path d="M65.2082 191.626H60V212.926H65.2082V191.626Z" fill="white"/>
<path d="M78.3316 186.419H70.4157C69.0344 186.419 67.7097 186.968 66.733 187.944C65.7562 188.921 65.2075 190.246 65.2075 191.627H78.3316V212.927H83.5398V186.419H78.3316Z" fill="white"/>
</svg>
